<svg width="54" height="57" viewBox="0 0 181 193" fill="none" xmlns="http://www.w3.org/2000/svg">
    <path d="M17.8794 58.0209L74.0013 25.6596C75.5614 26.2949 77.2447 26.6433 79.01 26.6433C86.3588 26.6433 92.3528 20.6588 92.3528 13.3217C92.3528 5.9845 86.3588 0 79.01 0C71.6612 0 65.7083 5.94351 65.6672 13.2602L7.69778 46.6873C2.95595 49.4336 0 54.5368 0 60.0294V131.188C0 136.66 2.95595 141.783 7.71831 144.53L72.9955 182.158C73.8987 182.671 74.9251 182.958 75.9514 182.958C76.9778 182.958 78.0042 182.691 78.9074 182.158C80.7549 181.093 81.8633 179.166 81.8633 177.035V175.129C81.8633 172.013 80.1801 169.124 77.491 167.566L17.8794 133.196C16.0524 132.13 14.9029 130.163 14.9029 128.052V63.1651C14.9029 61.0542 16.0524 59.0662 17.8794 58.0209ZM71.0043 10.2064C72.2565 6.98875 75.3767 4.73431 79.0305 4.73431C79.4821 4.73431 79.9132 4.7753 80.3443 4.83679C80.878 4.91876 81.3912 5.04173 81.8633 5.22619C85.2298 6.39439 87.6315 9.59159 87.6315 13.3421C87.6315 17.4616 84.7166 20.9252 80.837 21.745C80.2622 21.868 79.6464 21.9295 79.0305 21.9295C74.2682 21.9295 70.409 18.0765 70.409 13.3217C70.409 12.2149 70.6348 11.1697 71.0043 10.2064Z" fill="white"/>
    <path d="M173.272 50.7658L107.954 13.1168C107.03 12.5839 106.004 12.3175 104.957 12.3175C103.91 12.3175 102.883 12.6044 101.96 13.1168C100.092 14.203 98.9626 16.1295 98.9626 18.302V20.9458C98.9626 23.5281 100.359 25.926 102.596 27.2172L163.09 62.079C164.856 63.0832 165.944 64.9687 165.944 66.9977V132.171C165.944 134.2 164.856 136.086 163.09 137.09L108.405 167.832C106.578 166.89 104.505 166.357 102.329 166.357C94.9803 166.357 88.9863 172.341 88.9863 179.678C88.9863 187.016 94.9803 193 102.329 193C109.001 193 114.543 188.102 115.528 181.707L173.292 148.403C177.973 145.698 180.867 140.697 180.867 135.307V63.862C180.846 58.4719 177.952 53.4506 173.272 50.7658ZM108.282 185.888C107.276 186.852 106.065 187.569 104.69 187.958C103.93 188.184 103.13 188.286 102.309 188.286C102.227 188.286 102.124 188.286 102.042 188.286C97.4026 188.143 93.6871 184.351 93.6871 179.699C93.6871 174.944 97.5463 171.091 102.309 171.091C102.76 171.091 103.212 171.132 103.643 171.194C107.769 171.829 110.93 175.395 110.93 179.699C110.93 182.138 109.924 184.331 108.282 185.888Z" fill="white"/>
    <path d="M129.302 106.963L28.2047 133.729C26.4394 134.2 24.7561 130.901 25.7414 128.892L28.061 124.117C29.9085 120.305 32.7208 117.763 36.0462 116.882L136.405 90.3208C138.17 89.8495 139.853 93.1491 138.868 95.1576L136.158 100.773C134.557 104.032 132.156 106.225 129.302 106.963Z" fill="white"/>
    <path d="M130.041 131.208L67.4531 147.768C66.3651 148.055 64.9693 144.694 65.4003 142.808L66.4472 138.381C67.2683 134.836 68.8489 132.622 70.9222 132.089L133.059 115.652C134.147 115.366 135.543 118.727 135.111 120.612L133.9 125.818C133.161 128.851 131.807 130.737 130.041 131.208Z" fill="white"/>
    <path d="M113.845 67.5101L51.2569 84.0699C50.169 84.3568 48.7731 80.9957 49.2042 79.1101L50.2511 74.6833C51.0722 71.1376 52.6528 68.9242 54.7261 68.3913L116.863 51.9545C117.951 51.6675 119.346 55.0287 118.915 56.9142L117.704 62.1199C116.945 65.1532 115.61 67.0387 113.845 67.5101Z" fill="white"/>
    <path d="M147.489 79.725L46.4124 106.471C44.6471 106.942 42.9638 103.642 43.9492 101.634L46.2687 96.8587C48.1162 93.0467 50.9285 90.5053 54.2539 89.624L154.612 63.0627C156.378 62.5913 158.061 65.891 157.076 67.8995L154.366 73.5151C152.765 76.7942 150.363 78.9667 147.489 79.725Z" fill="white"/>
</svg>
