<svg width="581" height="97" viewBox="0 0 581 97" fill="none" xmlns="http://www.w3.org/2000/svg">
<path d="M19.8885 14C19.7976 12.8636 19.3714 11.9773 18.6101 11.3409C17.8601 10.7045 16.718 10.3864 15.1839 10.3864C14.2067 10.3864 13.4055 10.5057 12.7805 10.7443C12.1669 10.9716 11.7124 11.2841 11.4169 11.6818C11.1214 12.0795 10.968 12.5341 10.9567 13.0455C10.9339 13.4659 11.0078 13.8466 11.1783 14.1875C11.3601 14.517 11.6442 14.8182 12.0305 15.0909C12.4169 15.3523 12.9112 15.5909 13.5135 15.8068C14.1158 16.0227 14.8317 16.2159 15.6612 16.3864L18.5249 17C20.4567 17.4091 22.1101 17.9489 23.4851 18.6193C24.8601 19.2898 25.9851 20.0795 26.8601 20.9886C27.7351 21.8864 28.3771 22.8977 28.7862 24.0227C29.2067 25.1477 29.4226 26.375 29.434 27.7045C29.4226 30 28.8487 31.9432 27.7124 33.5341C26.576 35.125 24.951 36.3352 22.8374 37.1648C20.7351 37.9943 18.2067 38.4091 15.2521 38.4091C12.218 38.4091 9.57031 37.9602 7.30895 37.0625C5.05895 36.1648 3.30895 34.7841 2.05895 32.9205C0.820313 31.0455 0.195313 28.6477 0.183949 25.7273H9.18395C9.24077 26.7955 9.50781 27.6932 9.98509 28.4205C10.4624 29.1477 11.1328 29.6989 11.9964 30.0739C12.8714 30.4489 13.9112 30.6364 15.1158 30.6364C16.1271 30.6364 16.9737 30.5114 17.6555 30.2614C18.3374 30.0114 18.8544 29.6648 19.2067 29.2216C19.5589 28.7784 19.7408 28.2727 19.7521 27.7045C19.7408 27.1705 19.5646 26.7045 19.2237 26.3068C18.8942 25.8977 18.3487 25.5341 17.5874 25.2159C16.826 24.8864 15.7976 24.5795 14.5021 24.2955L11.0249 23.5455C7.93395 22.875 5.49645 21.7557 3.71236 20.1875C1.93963 18.608 1.05895 16.4545 1.07031 13.7273C1.05895 11.5114 1.64986 9.57386 2.84304 7.91477C4.04759 6.24432 5.71236 4.94318 7.83736 4.01136C9.97372 3.07954 12.4226 2.61364 15.1839 2.61364C18.0021 2.61364 20.4396 3.08523 22.4964 4.02841C24.5533 4.97159 26.1385 6.30114 27.2521 8.01705C28.3771 9.72159 28.9453 11.7159 28.9567 14H19.8885ZM33.1754 38V11.8182H42.5845V38H33.1754ZM37.88 9.09091C36.6072 9.09091 35.5163 8.67045 34.6072 7.82955C33.6982 6.98864 33.2436 5.97727 33.2436 4.79545C33.2436 3.61364 33.6982 2.60227 34.6072 1.76136C35.5163 0.920454 36.6072 0.5 37.88 0.5C39.1641 0.5 40.255 0.920454 41.1527 1.76136C42.0618 2.60227 42.5163 3.61364 42.5163 4.79545C42.5163 5.97727 42.0618 6.98864 41.1527 7.82955C40.255 8.67045 39.1641 9.09091 37.88 9.09091ZM47.3786 38V11.8182H56.3104V16.7955H56.5831C57.1286 15.1591 58.0604 13.8636 59.3786 12.9091C60.6967 11.9545 62.2649 11.4773 64.0831 11.4773C65.924 11.4773 67.5092 11.9659 68.8388 12.9432C70.1683 13.9091 70.9695 15.1932 71.2422 16.7955H71.5149C71.9581 15.1932 72.9013 13.9091 74.3445 12.9432C75.7876 11.9659 77.4808 11.4773 79.424 11.4773C81.9354 11.4773 83.9695 12.2841 85.5263 13.8977C87.0945 15.5114 87.8786 17.6591 87.8786 20.3409V38H78.4695V22.7273C78.4695 21.5795 78.1797 20.6818 77.6001 20.0341C77.0206 19.375 76.2422 19.0455 75.2649 19.0455C74.299 19.0455 73.532 19.375 72.9638 20.0341C72.407 20.6818 72.1286 21.5795 72.1286 22.7273V38H63.1286V22.7273C63.1286 21.5795 62.8388 20.6818 62.2592 20.0341C61.6797 19.375 60.9013 19.0455 59.924 19.0455C59.2763 19.0455 58.7195 19.1932 58.2536 19.4886C57.7876 19.7841 57.424 20.2102 57.1626 20.767C56.9126 21.3125 56.7876 21.9659 56.7876 22.7273V38H47.3786ZM92.5192 47.8182V11.8182H101.86V16.3864H102.065C102.406 15.5 102.906 14.6875 103.565 13.9489C104.224 13.1989 105.042 12.6023 106.019 12.1591C106.996 11.7045 108.133 11.4773 109.428 11.4773C111.156 11.4773 112.798 11.9375 114.354 12.858C115.923 13.7784 117.195 15.2273 118.173 17.2045C119.161 19.1818 119.656 21.75 119.656 24.9091C119.656 27.9318 119.184 30.4375 118.241 32.4261C117.309 34.4148 116.059 35.8977 114.491 36.875C112.934 37.8523 111.224 38.3409 109.36 38.3409C108.133 38.3409 107.036 38.142 106.07 37.7443C105.116 37.3352 104.298 36.7841 103.616 36.0909C102.945 35.3864 102.428 34.5909 102.065 33.7045H101.928V47.8182H92.5192ZM101.724 24.9091C101.724 26.1818 101.888 27.2841 102.218 28.2159C102.559 29.1364 103.036 29.8523 103.65 30.3636C104.275 30.8636 105.019 31.1136 105.883 31.1136C106.746 31.1136 107.479 30.8693 108.082 30.3807C108.695 29.8807 109.161 29.1705 109.479 28.25C109.809 27.3182 109.974 26.2045 109.974 24.9091C109.974 23.6136 109.809 22.5057 109.479 21.5852C109.161 20.6534 108.695 19.9432 108.082 19.4545C107.479 18.9545 106.746 18.7045 105.883 18.7045C105.019 18.7045 104.275 18.9545 103.65 19.4545C103.036 19.9432 102.559 20.6534 102.218 21.5852C101.888 22.5057 101.724 23.6136 101.724 24.9091ZM133.006 3.09091V38H123.597V3.09091H133.006ZM137.8 38V11.8182H147.21V38H137.8ZM142.505 9.09091C141.232 9.09091 140.141 8.67045 139.232 7.82955C138.323 6.98864 137.869 5.97727 137.869 4.79545C137.869 3.61364 138.323 2.60227 139.232 1.76136C140.141 0.920454 141.232 0.5 142.505 0.5C143.789 0.5 144.88 0.920454 145.778 1.76136C146.687 2.60227 147.141 3.61364 147.141 4.79545C147.141 5.97727 146.687 6.98864 145.778 7.82955C144.88 8.67045 143.789 9.09091 142.505 9.09091ZM167.685 11.8182V18.6364H150.163V11.8182H167.685ZM153.504 38V11.0682C153.504 8.90909 153.89 7.11932 154.663 5.69886C155.435 4.27841 156.526 3.21591 157.935 2.51136C159.344 1.80682 161.004 1.45454 162.913 1.45454C164.106 1.45454 165.265 1.54545 166.39 1.72727C167.526 1.90909 168.367 2.06818 168.913 2.20454L167.549 8.95455C167.208 8.85227 166.81 8.77273 166.356 8.71591C165.901 8.64773 165.504 8.61364 165.163 8.61364C164.276 8.61364 163.68 8.80114 163.373 9.17614C163.066 9.55114 162.913 10.0455 162.913 10.6591V38H153.504ZM171.316 38V11.8182H180.725V38H171.316ZM176.021 9.09091C174.748 9.09091 173.657 8.67045 172.748 7.82955C171.839 6.98864 171.384 5.97727 171.384 4.79545C171.384 3.61364 171.839 2.60227 172.748 1.76136C173.657 0.920454 174.748 0.5 176.021 0.5C177.305 0.5 178.396 0.920454 179.293 1.76136C180.202 2.60227 180.657 3.61364 180.657 4.79545C180.657 5.97727 180.202 6.98864 179.293 7.82955C178.396 8.67045 177.305 9.09091 176.021 9.09091ZM198.065 38.4773C195.269 38.4773 192.86 37.9432 190.837 36.875C188.826 35.7955 187.275 34.25 186.184 32.2386C185.104 30.2159 184.565 27.7955 184.565 24.9773C184.565 22.2727 185.11 19.9091 186.201 17.8864C187.292 15.8636 188.832 14.2898 190.82 13.1648C192.809 12.0398 195.156 11.4773 197.86 11.4773C199.837 11.4773 201.627 11.7841 203.229 12.3977C204.832 13.0114 206.201 13.9034 207.337 15.0739C208.474 16.233 209.349 17.642 209.962 19.3011C210.576 20.9602 210.883 22.8295 210.883 24.9091V27.0909H187.496V21.9091H202.224C202.212 21.1591 202.019 20.5 201.644 19.9318C201.281 19.3523 200.786 18.9034 200.161 18.5852C199.548 18.2557 198.849 18.0909 198.065 18.0909C197.303 18.0909 196.604 18.2557 195.968 18.5852C195.332 18.9034 194.82 19.3466 194.434 19.9148C194.059 20.483 193.86 21.1477 193.837 21.9091V27.5C193.837 28.3409 194.013 29.0909 194.366 29.75C194.718 30.4091 195.224 30.9261 195.883 31.3011C196.542 31.6761 197.337 31.8636 198.269 31.8636C198.917 31.8636 199.508 31.7727 200.042 31.5909C200.587 31.4091 201.053 31.1477 201.44 30.8068C201.826 30.4545 202.11 30.0341 202.292 29.5455H210.883C210.587 31.3636 209.888 32.9432 208.786 34.2841C207.684 35.6136 206.224 36.6477 204.406 37.3864C202.599 38.1136 200.485 38.4773 198.065 38.4773ZM214.995 38V32.8182L226.45 19.1136V18.9773H215.404V11.8182H237.563V17.5455L227.131 30.7045V30.8409H237.972V38H214.995ZM279.124 11.8182L270.329 38H259.42L250.624 11.8182H260.511L264.738 29.1364H265.011L269.238 11.8182H279.124ZM293.617 38.4773C290.776 38.4773 288.344 37.9148 286.322 36.7898C284.299 35.6534 282.748 34.0739 281.668 32.0511C280.589 30.017 280.049 27.6591 280.049 24.9773C280.049 22.2955 280.589 19.9432 281.668 17.9205C282.748 15.8864 284.299 14.3068 286.322 13.1818C288.344 12.0455 290.776 11.4773 293.617 11.4773C296.458 11.4773 298.89 12.0455 300.913 13.1818C302.935 14.3068 304.487 15.8864 305.566 17.9205C306.646 19.9432 307.185 22.2955 307.185 24.9773C307.185 27.6591 306.646 30.017 305.566 32.0511C304.487 34.0739 302.935 35.6534 300.913 36.7898C298.89 37.9148 296.458 38.4773 293.617 38.4773ZM293.685 31.5227C294.481 31.5227 295.168 31.2557 295.748 30.7216C296.327 30.1875 296.776 29.4261 297.094 28.4375C297.413 27.4489 297.572 26.2727 297.572 24.9091C297.572 23.5341 297.413 22.358 297.094 21.3807C296.776 20.392 296.327 19.6307 295.748 19.0966C295.168 18.5625 294.481 18.2955 293.685 18.2955C292.844 18.2955 292.123 18.5625 291.521 19.0966C290.918 19.6307 290.458 20.392 290.14 21.3807C289.822 22.358 289.663 23.5341 289.663 24.9091C289.663 26.2727 289.822 27.4489 290.14 28.4375C290.458 29.4261 290.918 30.1875 291.521 30.7216C292.123 31.2557 292.844 31.5227 293.685 31.5227ZM326.617 11.8182V18.6364H309.367V11.8182H326.617ZM312.708 5.54545H322.117V29.5795C322.117 29.9432 322.18 30.25 322.305 30.5C322.43 30.7386 322.623 30.9205 322.884 31.0455C323.146 31.1591 323.481 31.2159 323.89 31.2159C324.174 31.2159 324.504 31.1818 324.879 31.1136C325.265 31.0455 325.549 30.9886 325.731 30.9432L327.094 37.5568C326.674 37.6818 326.072 37.8352 325.288 38.017C324.515 38.1989 323.594 38.3182 322.526 38.375C320.367 38.4886 318.555 38.267 317.089 37.7102C315.623 37.142 314.521 36.25 313.782 35.0341C313.043 33.8182 312.685 32.2955 312.708 30.4659V5.54545ZM330.457 38V11.8182H339.593V16.7955H339.866C340.343 14.9545 341.099 13.608 342.133 12.7557C343.178 11.9034 344.4 11.4773 345.798 11.4773C346.207 11.4773 346.61 11.5114 347.008 11.5795C347.417 11.6364 347.809 11.7216 348.184 11.8352V19.8636C347.718 19.7045 347.144 19.5852 346.462 19.5057C345.781 19.4261 345.195 19.3864 344.707 19.3864C343.786 19.3864 342.957 19.5966 342.218 20.017C341.491 20.4261 340.917 21.0057 340.496 21.7557C340.076 22.4943 339.866 23.3636 339.866 24.3636V38H330.457ZM362.315 38.4773C359.519 38.4773 357.11 37.9432 355.087 36.875C353.076 35.7955 351.525 34.25 350.434 32.2386C349.354 30.2159 348.815 27.7955 348.815 24.9773C348.815 22.2727 349.36 19.9091 350.451 17.8864C351.542 15.8636 353.082 14.2898 355.07 13.1648C357.059 12.0398 359.406 11.4773 362.11 11.4773C364.087 11.4773 365.877 11.7841 367.479 12.3977C369.082 13.0114 370.451 13.9034 371.587 15.0739C372.724 16.233 373.599 17.642 374.212 19.3011C374.826 20.9602 375.133 22.8295 375.133 24.9091V27.0909H351.746V21.9091H366.474C366.462 21.1591 366.269 20.5 365.894 19.9318C365.531 19.3523 365.036 18.9034 364.411 18.5852C363.798 18.2557 363.099 18.0909 362.315 18.0909C361.553 18.0909 360.854 18.2557 360.218 18.5852C359.582 18.9034 359.07 19.3466 358.684 19.9148C358.309 20.483 358.11 21.1477 358.087 21.9091V27.5C358.087 28.3409 358.263 29.0909 358.616 29.75C358.968 30.4091 359.474 30.9261 360.133 31.3011C360.792 31.6761 361.587 31.8636 362.519 31.8636C363.167 31.8636 363.758 31.7727 364.292 31.5909C364.837 31.4091 365.303 31.1477 365.69 30.8068C366.076 30.4545 366.36 30.0341 366.542 29.5455H375.133C374.837 31.3636 374.138 32.9432 373.036 34.2841C371.934 35.6136 370.474 36.6477 368.656 37.3864C366.849 38.1136 364.735 38.4773 362.315 38.4773ZM414.921 11.8182L406.126 38H395.217L386.421 11.8182H396.308L400.535 29.1364H400.808L405.035 11.8182H414.921ZM417.597 38V11.8182H427.006V38H417.597ZM422.302 9.09091C421.029 9.09091 419.938 8.67045 419.029 7.82955C418.12 6.98864 417.665 5.97727 417.665 4.79545C417.665 3.61364 418.12 2.60227 419.029 1.76136C419.938 0.920454 421.029 0.5 422.302 0.5C423.586 0.5 424.677 0.920454 425.575 1.76136C426.484 2.60227 426.938 3.61364 426.938 4.79545C426.938 5.97727 426.484 6.98864 425.575 7.82955C424.677 8.67045 423.586 9.09091 422.302 9.09091ZM444.346 38.4773C441.55 38.4773 439.141 37.9432 437.119 36.875C435.107 35.7955 433.556 34.25 432.465 32.2386C431.386 30.2159 430.846 27.7955 430.846 24.9773C430.846 22.2727 431.391 19.9091 432.482 17.8864C433.573 15.8636 435.113 14.2898 437.102 13.1648C439.09 12.0398 441.437 11.4773 444.141 11.4773C446.119 11.4773 447.908 11.7841 449.511 12.3977C451.113 13.0114 452.482 13.9034 453.619 15.0739C454.755 16.233 455.63 17.642 456.244 19.3011C456.857 20.9602 457.164 22.8295 457.164 24.9091V27.0909H433.778V21.9091H448.505C448.494 21.1591 448.3 20.5 447.925 19.9318C447.562 19.3523 447.067 18.9034 446.442 18.5852C445.829 18.2557 445.13 18.0909 444.346 18.0909C443.585 18.0909 442.886 18.2557 442.249 18.5852C441.613 18.9034 441.102 19.3466 440.715 19.9148C440.34 20.483 440.141 21.1477 440.119 21.9091V27.5C440.119 28.3409 440.295 29.0909 440.647 29.75C440.999 30.4091 441.505 30.9261 442.164 31.3011C442.823 31.6761 443.619 31.8636 444.55 31.8636C445.198 31.8636 445.789 31.7727 446.323 31.5909C446.869 31.4091 447.335 31.1477 447.721 30.8068C448.107 30.4545 448.391 30.0341 448.573 29.5455H457.164C456.869 31.3636 456.17 32.9432 455.067 34.2841C453.965 35.6136 452.505 36.6477 450.687 37.3864C448.88 38.1136 446.766 38.4773 444.346 38.4773ZM477.862 38.4091C476.191 38.4091 474.714 38.1364 473.43 37.5909C472.157 37.0341 471.157 36.1932 470.43 35.0682C469.702 33.9432 469.339 32.5114 469.339 30.7727C469.339 29.3409 469.583 28.1193 470.072 27.108C470.56 26.0852 471.242 25.25 472.117 24.6023C472.992 23.9545 474.009 23.4602 475.168 23.1193C476.339 22.7784 477.6 22.5568 478.952 22.4545C480.418 22.3409 481.594 22.2045 482.481 22.0455C483.379 21.875 484.026 21.642 484.424 21.3466C484.822 21.0398 485.021 20.6364 485.021 20.1364V20.0682C485.021 19.3864 484.759 18.8636 484.237 18.5C483.714 18.1364 483.043 17.9545 482.225 17.9545C481.327 17.9545 480.594 18.1534 480.026 18.5511C479.469 18.9375 479.134 19.5341 479.021 20.3409H470.362C470.475 18.75 470.981 17.2841 471.879 15.9432C472.788 14.5909 474.112 13.5114 475.85 12.7045C477.589 11.8864 479.759 11.4773 482.362 11.4773C484.237 11.4773 485.918 11.6989 487.407 12.142C488.896 12.5739 490.163 13.1818 491.208 13.9659C492.254 14.7386 493.049 15.6477 493.594 16.6932C494.151 17.7273 494.43 18.8523 494.43 20.0682V38H485.634V34.3182H485.43C484.907 35.2955 484.271 36.0852 483.521 36.6875C482.782 37.2898 481.935 37.7273 480.981 38C480.038 38.2727 478.998 38.4091 477.862 38.4091ZM480.93 32.4773C481.646 32.4773 482.316 32.3295 482.941 32.0341C483.577 31.7386 484.094 31.3125 484.492 30.7557C484.89 30.1989 485.089 29.5227 485.089 28.7273V26.5455C484.839 26.6477 484.572 26.7443 484.288 26.8352C484.015 26.9261 483.719 27.0114 483.401 27.0909C483.094 27.1705 482.765 27.2443 482.413 27.3125C482.072 27.3807 481.714 27.4432 481.339 27.5C480.612 27.6136 480.015 27.8011 479.549 28.0625C479.094 28.3125 478.754 28.625 478.526 29C478.31 29.3636 478.202 29.7727 478.202 30.2273C478.202 30.9545 478.458 31.5114 478.969 31.8977C479.481 32.2841 480.134 32.4773 480.93 32.4773ZM524.374 11.8182L515.579 38H504.67L495.874 11.8182H505.761L509.988 29.1364H510.261L514.488 11.8182H524.374ZM538.799 38.4773C536.004 38.4773 533.594 37.9432 531.572 36.875C529.56 35.7955 528.009 34.25 526.918 32.2386C525.839 30.2159 525.299 27.7955 525.299 24.9773C525.299 22.2727 525.844 19.9091 526.935 17.8864C528.026 15.8636 529.566 14.2898 531.555 13.1648C533.543 12.0398 535.89 11.4773 538.594 11.4773C540.572 11.4773 542.362 11.7841 543.964 12.3977C545.566 13.0114 546.935 13.9034 548.072 15.0739C549.208 16.233 550.083 17.642 550.697 19.3011C551.31 20.9602 551.617 22.8295 551.617 24.9091V27.0909H528.231V21.9091H542.958C542.947 21.1591 542.754 20.5 542.379 19.9318C542.015 19.3523 541.521 18.9034 540.896 18.5852C540.282 18.2557 539.583 18.0909 538.799 18.0909C538.038 18.0909 537.339 18.2557 536.702 18.5852C536.066 18.9034 535.555 19.3466 535.168 19.9148C534.793 20.483 534.594 21.1477 534.572 21.9091V27.5C534.572 28.3409 534.748 29.0909 535.1 29.75C535.452 30.4091 535.958 30.9261 536.617 31.3011C537.276 31.6761 538.072 31.8636 539.004 31.8636C539.651 31.8636 540.242 31.7727 540.776 31.5909C541.322 31.4091 541.788 31.1477 542.174 30.8068C542.56 30.4545 542.844 30.0341 543.026 29.5455H551.617C551.322 31.3636 550.623 32.9432 549.521 34.2841C548.418 35.6136 546.958 36.6477 545.14 37.3864C543.333 38.1136 541.219 38.4773 538.799 38.4773ZM568.07 38.4773C565.229 38.4773 562.798 37.9148 560.775 36.7898C558.752 35.6534 557.201 34.0739 556.121 32.0511C555.042 30.017 554.502 27.6591 554.502 24.9773C554.502 22.2955 555.042 19.9432 556.121 17.9205C557.201 15.8864 558.752 14.3068 560.775 13.1818C562.798 12.0455 565.229 11.4773 568.07 11.4773C570.638 11.4773 572.86 11.9432 574.735 12.875C576.621 13.7955 578.082 15.1023 579.116 16.7955C580.15 18.4773 580.673 20.4545 580.684 22.7273H571.957C571.832 21.3523 571.434 20.3068 570.763 19.5909C570.104 18.8636 569.252 18.5 568.207 18.5C567.388 18.5 566.673 18.7386 566.059 19.2159C565.445 19.6818 564.968 20.392 564.627 21.3466C564.286 22.2898 564.116 23.4773 564.116 24.9091C564.116 26.3409 564.286 27.5341 564.627 28.4886C564.968 29.4318 565.445 30.142 566.059 30.6193C566.673 31.0852 567.388 31.3182 568.207 31.3182C568.9 31.3182 569.513 31.1591 570.048 30.8409C570.582 30.5114 571.013 30.0341 571.343 29.4091C571.684 28.7727 571.888 28 571.957 27.0909H580.684C580.65 29.3977 580.121 31.4091 579.099 33.125C578.076 34.8295 576.627 36.1477 574.752 37.0795C572.888 38.0114 570.661 38.4773 568.07 38.4773ZM144.857 96H134.63L146.153 61.0909H159.107L170.63 96H160.403L152.766 70.7045H152.494L144.857 96ZM142.948 82.2273H162.175V89.3182H142.948V82.2273ZM191.106 84.5455V69.8182H200.515V96H191.583V91.0227H191.31C190.742 92.6932 189.748 94 188.327 94.9432C186.907 95.875 185.219 96.3409 183.265 96.3409C181.435 96.3409 179.833 95.9205 178.458 95.0795C177.094 94.2386 176.032 93.0795 175.271 91.6023C174.521 90.125 174.14 88.4318 174.129 86.5227V69.8182H183.538V84.5455C183.549 85.8409 183.879 86.858 184.526 87.5966C185.185 88.3352 186.106 88.7045 187.288 88.7045C188.072 88.7045 188.748 88.5398 189.316 88.2102C189.896 87.8693 190.339 87.392 190.646 86.7784C190.964 86.1534 191.117 85.4091 191.106 84.5455ZM220.914 69.8182V76.6364H203.664V69.8182H220.914ZM207.005 63.5455H216.414V87.5795C216.414 87.9432 216.477 88.25 216.602 88.5C216.727 88.7386 216.92 88.9205 217.181 89.0455C217.442 89.1591 217.778 89.2159 218.187 89.2159C218.471 89.2159 218.8 89.1818 219.175 89.1136C219.562 89.0455 219.846 88.9886 220.028 88.9432L221.391 95.5568C220.971 95.6818 220.369 95.8352 219.585 96.017C218.812 96.1989 217.891 96.3182 216.823 96.375C214.664 96.4886 212.852 96.267 211.386 95.7102C209.92 95.142 208.817 94.25 208.079 93.0341C207.34 91.8182 206.982 90.2955 207.005 88.4659V63.5455ZM237.086 96.4773C234.245 96.4773 231.813 95.9148 229.79 94.7898C227.768 93.6534 226.217 92.0739 225.137 90.0511C224.058 88.017 223.518 85.6591 223.518 82.9773C223.518 80.2955 224.058 77.9432 225.137 75.9205C226.217 73.8864 227.768 72.3068 229.79 71.1818C231.813 70.0455 234.245 69.4773 237.086 69.4773C239.927 69.4773 242.359 70.0455 244.381 71.1818C246.404 72.3068 247.955 73.8864 249.035 75.9205C250.114 77.9432 250.654 80.2955 250.654 82.9773C250.654 85.6591 250.114 88.017 249.035 90.0511C247.955 92.0739 246.404 93.6534 244.381 94.7898C242.359 95.9148 239.927 96.4773 237.086 96.4773ZM237.154 89.5227C237.95 89.5227 238.637 89.2557 239.217 88.7216C239.796 88.1875 240.245 87.4261 240.563 86.4375C240.881 85.4489 241.04 84.2727 241.04 82.9091C241.04 81.5341 240.881 80.358 240.563 79.3807C240.245 78.392 239.796 77.6307 239.217 77.0966C238.637 76.5625 237.95 76.2955 237.154 76.2955C236.313 76.2955 235.592 76.5625 234.989 77.0966C234.387 77.6307 233.927 78.392 233.609 79.3807C233.29 80.358 233.131 81.5341 233.131 82.9091C233.131 84.2727 233.29 85.4489 233.609 86.4375C233.927 87.4261 234.387 88.1875 234.989 88.7216C235.592 89.2557 236.313 89.5227 237.154 89.5227ZM254.336 61.0909H266.131L274.245 80.8636H274.654L282.768 61.0909H294.563V96H285.29V75.8182H285.018L277.245 95.7273H271.654L263.881 75.6818H263.609V96H254.336V61.0909ZM306.487 96.4091C304.816 96.4091 303.339 96.1364 302.055 95.5909C300.782 95.0341 299.782 94.1932 299.055 93.0682C298.327 91.9432 297.964 90.5114 297.964 88.7727C297.964 87.3409 298.208 86.1193 298.697 85.108C299.185 84.0852 299.867 83.25 300.742 82.6023C301.617 81.9545 302.634 81.4602 303.793 81.1193C304.964 80.7784 306.225 80.5568 307.577 80.4545C309.043 80.3409 310.219 80.2045 311.106 80.0455C312.004 79.875 312.651 79.642 313.049 79.3466C313.447 79.0398 313.646 78.6364 313.646 78.1364V78.0682C313.646 77.3864 313.384 76.8636 312.862 76.5C312.339 76.1364 311.668 75.9545 310.85 75.9545C309.952 75.9545 309.219 76.1534 308.651 76.5511C308.094 76.9375 307.759 77.5341 307.646 78.3409H298.987C299.1 76.75 299.606 75.2841 300.504 73.9432C301.413 72.5909 302.737 71.5114 304.475 70.7045C306.214 69.8864 308.384 69.4773 310.987 69.4773C312.862 69.4773 314.543 69.6989 316.032 70.142C317.521 70.5739 318.788 71.1818 319.833 71.9659C320.879 72.7386 321.674 73.6477 322.219 74.6932C322.776 75.7273 323.055 76.8523 323.055 78.0682V96H314.259V92.3182H314.055C313.532 93.2955 312.896 94.0852 312.146 94.6875C311.407 95.2898 310.56 95.7273 309.606 96C308.663 96.2727 307.623 96.4091 306.487 96.4091ZM309.555 90.4773C310.271 90.4773 310.941 90.3295 311.566 90.0341C312.202 89.7386 312.719 89.3125 313.117 88.7557C313.515 88.1989 313.714 87.5227 313.714 86.7273V84.5455C313.464 84.6477 313.197 84.7443 312.913 84.8352C312.64 84.9261 312.344 85.0114 312.026 85.0909C311.719 85.1705 311.39 85.2443 311.038 85.3125C310.697 85.3807 310.339 85.4432 309.964 85.5C309.237 85.6136 308.64 85.8011 308.174 86.0625C307.719 86.3125 307.379 86.625 307.151 87C306.935 87.3636 306.827 87.7727 306.827 88.2273C306.827 88.9545 307.083 89.5114 307.594 89.8977C308.106 90.2841 308.759 90.4773 309.555 90.4773ZM343.164 69.8182V76.6364H325.914V69.8182H343.164ZM329.255 63.5455H338.664V87.5795C338.664 87.9432 338.727 88.25 338.852 88.5C338.977 88.7386 339.17 88.9205 339.431 89.0455C339.692 89.1591 340.028 89.2159 340.437 89.2159C340.721 89.2159 341.05 89.1818 341.425 89.1136C341.812 89.0455 342.096 88.9886 342.278 88.9432L343.641 95.5568C343.221 95.6818 342.619 95.8352 341.835 96.017C341.062 96.1989 340.141 96.3182 339.073 96.375C336.914 96.4886 335.102 96.267 333.636 95.7102C332.17 95.142 331.067 94.25 330.329 93.0341C329.59 91.8182 329.232 90.2955 329.255 88.4659V63.5455ZM359.268 96.4773C356.472 96.4773 354.063 95.9432 352.04 94.875C350.029 93.7955 348.478 92.25 347.387 90.2386C346.308 88.2159 345.768 85.7955 345.768 82.9773C345.768 80.2727 346.313 77.9091 347.404 75.8864C348.495 73.8636 350.035 72.2898 352.023 71.1648C354.012 70.0398 356.359 69.4773 359.063 69.4773C361.04 69.4773 362.83 69.7841 364.433 70.3977C366.035 71.0114 367.404 71.9034 368.54 73.0739C369.677 74.233 370.552 75.642 371.165 77.3011C371.779 78.9602 372.086 80.8295 372.086 82.9091V85.0909H348.7V79.9091H363.427C363.415 79.1591 363.222 78.5 362.847 77.9318C362.484 77.3523 361.989 76.9034 361.364 76.5852C360.751 76.2557 360.052 76.0909 359.268 76.0909C358.506 76.0909 357.808 76.2557 357.171 76.5852C356.535 76.9034 356.023 77.3466 355.637 77.9148C355.262 78.483 355.063 79.1477 355.04 79.9091V85.5C355.04 86.3409 355.217 87.0909 355.569 87.75C355.921 88.4091 356.427 88.9261 357.086 89.3011C357.745 89.6761 358.54 89.8636 359.472 89.8636C360.12 89.8636 360.711 89.7727 361.245 89.5909C361.79 89.4091 362.256 89.1477 362.643 88.8068C363.029 88.4545 363.313 88.0341 363.495 87.5455H372.086C371.79 89.3636 371.092 90.9432 369.989 92.2841C368.887 93.6136 367.427 94.6477 365.609 95.3864C363.802 96.1136 361.688 96.4773 359.268 96.4773ZM375.789 61.0909H387.585L395.698 80.8636H396.107L404.221 61.0909H416.016V96H406.744V75.8182H406.471L398.698 95.7273H393.107L385.335 75.6818H385.062V96H375.789V61.0909ZM433.19 96.4773C430.394 96.4773 427.985 95.9432 425.962 94.875C423.951 93.7955 422.4 92.25 421.309 90.2386C420.229 88.2159 419.69 85.7955 419.69 82.9773C419.69 80.2727 420.235 77.9091 421.326 75.8864C422.417 73.8636 423.957 72.2898 425.945 71.1648C427.934 70.0398 430.281 69.4773 432.985 69.4773C434.962 69.4773 436.752 69.7841 438.354 70.3977C439.957 71.0114 441.326 71.9034 442.462 73.0739C443.599 74.233 444.474 75.642 445.087 77.3011C445.701 78.9602 446.008 80.8295 446.008 82.9091V85.0909H422.621V79.9091H437.349C437.337 79.1591 437.144 78.5 436.769 77.9318C436.406 77.3523 435.911 76.9034 435.286 76.5852C434.673 76.2557 433.974 76.0909 433.19 76.0909C432.428 76.0909 431.729 76.2557 431.093 76.5852C430.457 76.9034 429.945 77.3466 429.559 77.9148C429.184 78.483 428.985 79.1477 428.962 79.9091V85.5C428.962 86.3409 429.138 87.0909 429.491 87.75C429.843 88.4091 430.349 88.9261 431.008 89.3011C431.667 89.6761 432.462 89.8636 433.394 89.8636C434.042 89.8636 434.633 89.7727 435.167 89.5909C435.712 89.4091 436.178 89.1477 436.565 88.8068C436.951 88.4545 437.235 88.0341 437.417 87.5455H446.008C445.712 89.3636 445.013 90.9432 443.911 92.2841C442.809 93.6136 441.349 94.6477 439.531 95.3864C437.724 96.1136 435.61 96.4773 433.19 96.4773Z" fill="white"/>
</svg>