<svg width="510" height="24" viewBox="0 0 510 24" fill="none" xmlns="http://www.w3.org/2000/svg">
<path d="M4.81463 19H0.860085L6.88565 1.54545H11.6413L17.6584 19H13.7038L9.33168 5.53409H9.19531L4.81463 19ZM4.56747 12.1392H13.9084V15.0199H4.56747V12.1392ZM28.0859 13.4261V5.90909H31.7166V19H28.2308V16.6222H28.0945C27.799 17.3892 27.3075 18.0057 26.62 18.4716C25.9382 18.9375 25.1058 19.1705 24.1229 19.1705C23.2479 19.1705 22.478 18.9716 21.8132 18.5739C21.1484 18.1761 20.6286 17.6108 20.2536 16.8778C19.8842 16.1449 19.6967 15.267 19.6911 14.2443V5.90909H23.3217V13.5966C23.3274 14.3693 23.5348 14.9801 23.9439 15.429C24.353 15.8778 24.9013 16.1023 25.5888 16.1023C26.0263 16.1023 26.4354 16.0028 26.8161 15.804C27.1967 15.5994 27.5036 15.2983 27.7365 14.9006C27.9751 14.5028 28.0916 14.0114 28.0859 13.4261ZM41.5838 5.90909V8.63636H33.7003V5.90909H41.5838ZM35.4901 2.77273H39.1207V14.9773C39.1207 15.3125 39.1719 15.5739 39.2741 15.7614C39.3764 15.9432 39.5185 16.071 39.7003 16.1449C39.8878 16.2187 40.1037 16.2557 40.348 16.2557C40.5185 16.2557 40.6889 16.2415 40.8594 16.2131C41.0298 16.179 41.1605 16.1534 41.2514 16.1364L41.8224 18.8381C41.6406 18.8949 41.3849 18.9602 41.0554 19.0341C40.7259 19.1136 40.3253 19.1619 39.8537 19.179C38.9787 19.2131 38.2116 19.0966 37.5526 18.8295C36.8991 18.5625 36.3906 18.1477 36.027 17.5852C35.6634 17.0227 35.4844 16.3125 35.4901 15.4545V2.77273ZM49.723 19.2557C48.3991 19.2557 47.2543 18.9744 46.2884 18.4119C45.3281 17.8437 44.5866 17.054 44.0639 16.0426C43.5412 15.0256 43.2798 13.8466 43.2798 12.5057C43.2798 11.1534 43.5412 9.97159 44.0639 8.96023C44.5866 7.94318 45.3281 7.15341 46.2884 6.59091C47.2543 6.02273 48.3991 5.73864 49.723 5.73864C51.0469 5.73864 52.1889 6.02273 53.1491 6.59091C54.1151 7.15341 54.8594 7.94318 55.3821 8.96023C55.9048 9.97159 56.1662 11.1534 56.1662 12.5057C56.1662 13.8466 55.9048 15.0256 55.3821 16.0426C54.8594 17.054 54.1151 17.8437 53.1491 18.4119C52.1889 18.9744 51.0469 19.2557 49.723 19.2557ZM49.7401 16.4432C50.3423 16.4432 50.8452 16.2727 51.2486 15.9318C51.652 15.5852 51.956 15.1136 52.1605 14.517C52.3707 13.9205 52.4759 13.2415 52.4759 12.4801C52.4759 11.7188 52.3707 11.0398 52.1605 10.4432C51.956 9.84659 51.652 9.375 51.2486 9.02841C50.8452 8.68182 50.3423 8.50852 49.7401 8.50852C49.1321 8.50852 48.6207 8.68182 48.206 9.02841C47.7969 9.375 47.4872 9.84659 47.277 10.4432C47.0724 11.0398 46.9702 11.7188 46.9702 12.4801C46.9702 13.2415 47.0724 13.9205 47.277 14.517C47.4872 15.1136 47.7969 15.5852 48.206 15.9318C48.6207 16.2727 49.1321 16.4432 49.7401 16.4432ZM58.527 19V5.90909H61.9872V8.21875H62.1406C62.4134 7.4517 62.8679 6.84659 63.5043 6.40341C64.1406 5.96023 64.902 5.73864 65.7884 5.73864C66.6861 5.73864 67.4503 5.96307 68.081 6.41193C68.7116 6.85511 69.1321 7.45739 69.3423 8.21875H69.4787C69.7457 7.46875 70.2287 6.86932 70.9276 6.42045C71.6321 5.96591 72.4645 5.73864 73.4247 5.73864C74.6463 5.73864 75.6378 6.12784 76.3991 6.90625C77.1662 7.67898 77.5497 8.77557 77.5497 10.196V19H73.9276V10.9119C73.9276 10.1847 73.7344 9.6392 73.348 9.27557C72.9616 8.91193 72.4787 8.73011 71.8991 8.73011C71.2401 8.73011 70.7259 8.94034 70.3565 9.3608C69.9872 9.77557 69.8026 10.3239 69.8026 11.0057V19H66.2827V10.8352C66.2827 10.1932 66.098 9.68182 65.7287 9.30114C65.3651 8.92045 64.8849 8.73011 64.2884 8.73011C63.8849 8.73011 63.5213 8.83239 63.1974 9.03693C62.8793 9.2358 62.6264 9.51705 62.4389 9.88068C62.2514 10.2386 62.1577 10.6591 62.1577 11.142V19H58.527ZM84.1506 19.2472C83.3153 19.2472 82.571 19.1023 81.9176 18.8125C81.2642 18.517 80.7472 18.0824 80.3665 17.5085C79.9915 16.929 79.804 16.2074 79.804 15.3438C79.804 14.6165 79.9375 14.0057 80.2045 13.5114C80.4716 13.017 80.8352 12.6193 81.2955 12.3182C81.7557 12.017 82.2784 11.7898 82.8636 11.6364C83.4545 11.483 84.0739 11.375 84.7216 11.3125C85.483 11.233 86.0966 11.1591 86.5625 11.0909C87.0284 11.017 87.3665 10.9091 87.5767 10.767C87.7869 10.625 87.892 10.4148 87.892 10.1364V10.0852C87.892 9.54545 87.7216 9.12784 87.3807 8.83239C87.0455 8.53693 86.5682 8.3892 85.9489 8.3892C85.2955 8.3892 84.7756 8.53409 84.3892 8.82386C84.0028 9.10795 83.7472 9.46591 83.6222 9.89773L80.2642 9.625C80.4347 8.82955 80.7699 8.14205 81.2699 7.5625C81.7699 6.97727 82.4148 6.52841 83.2045 6.21591C84 5.89773 84.9205 5.73864 85.9659 5.73864C86.6932 5.73864 87.3892 5.82386 88.054 5.99432C88.7244 6.16477 89.3182 6.42898 89.8352 6.78693C90.358 7.14489 90.7699 7.60511 91.071 8.16761C91.3722 8.72443 91.5227 9.39205 91.5227 10.1705V19H88.0795V17.1847H87.9773C87.767 17.5938 87.4858 17.9545 87.1335 18.267C86.7812 18.5739 86.358 18.8153 85.8636 18.9915C85.3693 19.1619 84.7983 19.2472 84.1506 19.2472ZM85.1903 16.7415C85.7244 16.7415 86.196 16.6364 86.6051 16.4261C87.0142 16.2102 87.3352 15.9205 87.5682 15.5568C87.8011 15.1932 87.9176 14.7812 87.9176 14.321V12.9318C87.804 13.0057 87.6477 13.0739 87.4489 13.1364C87.2557 13.1932 87.0369 13.2472 86.7926 13.2983C86.5483 13.3437 86.304 13.3864 86.0597 13.4261C85.8153 13.4602 85.5938 13.4915 85.3949 13.5199C84.9688 13.5824 84.5966 13.6818 84.2784 13.8182C83.9602 13.9545 83.7131 14.1392 83.5369 14.3722C83.3608 14.5994 83.2727 14.8835 83.2727 15.2244C83.2727 15.7188 83.4517 16.0966 83.8097 16.358C84.1733 16.6136 84.6335 16.7415 85.1903 16.7415ZM101.303 5.90909V8.63636H93.419V5.90909H101.303ZM95.2088 2.77273H98.8395V14.9773C98.8395 15.3125 98.8906 15.5739 98.9929 15.7614C99.0952 15.9432 99.2372 16.071 99.419 16.1449C99.6065 16.2187 99.8224 16.2557 100.067 16.2557C100.237 16.2557 100.408 16.2415 100.578 16.2131C100.749 16.179 100.879 16.1534 100.97 16.1364L101.541 18.8381C101.359 18.8949 101.104 18.9602 100.774 19.0341C100.445 19.1136 100.044 19.1619 99.5724 19.179C98.6974 19.2131 97.9304 19.0966 97.2713 18.8295C96.6179 18.5625 96.1094 18.1477 95.7457 17.5852C95.3821 17.0227 95.2031 16.3125 95.2088 15.4545V2.77273ZM103.668 19V5.90909H107.298V19H103.668ZM105.491 4.22159C104.952 4.22159 104.489 4.04261 104.102 3.68466C103.722 3.32102 103.531 2.88636 103.531 2.38068C103.531 1.88068 103.722 1.4517 104.102 1.09375C104.489 0.730113 104.952 0.548295 105.491 0.548295C106.031 0.548295 106.491 0.730113 106.872 1.09375C107.259 1.4517 107.452 1.88068 107.452 2.38068C107.452 2.88636 107.259 3.32102 106.872 3.68466C106.491 4.04261 106.031 4.22159 105.491 4.22159ZM121.099 9.64205L117.775 9.84659C117.718 9.5625 117.596 9.30682 117.408 9.07955C117.221 8.84659 116.974 8.66193 116.667 8.52557C116.366 8.38352 116.005 8.3125 115.585 8.3125C115.022 8.3125 114.548 8.43182 114.161 8.67045C113.775 8.90341 113.582 9.21591 113.582 9.60795C113.582 9.92045 113.707 10.1847 113.957 10.4006C114.207 10.6165 114.636 10.7898 115.244 10.9205L117.613 11.3977C118.886 11.6591 119.835 12.0795 120.46 12.6591C121.085 13.2386 121.397 14 121.397 14.9432C121.397 15.8011 121.144 16.554 120.638 17.2017C120.138 17.8494 119.451 18.3551 118.576 18.7188C117.707 19.0767 116.704 19.2557 115.567 19.2557C113.835 19.2557 112.454 18.8949 111.425 18.1733C110.403 17.446 109.803 16.4574 109.627 15.2074L113.198 15.0199C113.306 15.5483 113.567 15.9517 113.982 16.2301C114.397 16.5028 114.928 16.6392 115.576 16.6392C116.212 16.6392 116.724 16.517 117.11 16.2727C117.502 16.0227 117.701 15.7017 117.707 15.3097C117.701 14.9801 117.562 14.7102 117.289 14.5C117.016 14.2841 116.596 14.1193 116.028 14.0057L113.761 13.554C112.482 13.2983 111.531 12.8551 110.906 12.2244C110.286 11.5937 109.977 10.7898 109.977 9.8125C109.977 8.97159 110.204 8.24716 110.658 7.6392C111.119 7.03125 111.763 6.5625 112.593 6.23295C113.428 5.90341 114.406 5.73864 115.525 5.73864C117.178 5.73864 118.479 6.08807 119.428 6.78693C120.383 7.4858 120.94 8.4375 121.099 9.64205ZM129.649 19.2557C128.303 19.2557 127.143 18.983 126.172 18.4375C125.206 17.8864 124.462 17.108 123.939 16.1023C123.416 15.0909 123.155 13.8949 123.155 12.5142C123.155 11.1676 123.416 9.9858 123.939 8.96875C124.462 7.9517 125.197 7.15909 126.146 6.59091C127.101 6.02273 128.22 5.73864 129.504 5.73864C130.368 5.73864 131.172 5.87784 131.916 6.15625C132.666 6.42898 133.32 6.84091 133.876 7.39205C134.439 7.94318 134.876 8.63636 135.189 9.47159C135.501 10.3011 135.658 11.2727 135.658 12.3864V13.3835H124.604V11.1335H132.24C132.24 10.6108 132.126 10.1477 131.899 9.74432C131.672 9.34091 131.357 9.02557 130.953 8.7983C130.555 8.56534 130.092 8.44886 129.564 8.44886C129.013 8.44886 128.524 8.5767 128.098 8.83239C127.678 9.08239 127.348 9.42045 127.109 9.84659C126.871 10.267 126.749 10.7358 126.743 11.2528V13.392C126.743 14.0398 126.862 14.5994 127.101 15.071C127.345 15.5426 127.689 15.9062 128.132 16.1619C128.575 16.4176 129.101 16.5455 129.709 16.5455C130.112 16.5455 130.482 16.4886 130.817 16.375C131.152 16.2614 131.439 16.0909 131.678 15.8636C131.916 15.6364 132.098 15.358 132.223 15.0284L135.581 15.25C135.411 16.0568 135.061 16.7614 134.533 17.3636C134.01 17.9602 133.334 18.4261 132.504 18.7614C131.68 19.0909 130.729 19.2557 129.649 19.2557ZM137.959 19V16.8352L144.368 8.90057V8.80682H138.18V5.90909H148.74V8.26989L142.723 16.0085V16.1023H148.962V19H137.959ZM164.256 5.90909V8.63636H156.372V5.90909H164.256ZM158.162 2.77273H161.793V14.9773C161.793 15.3125 161.844 15.5739 161.946 15.7614C162.048 15.9432 162.19 16.071 162.372 16.1449C162.56 16.2187 162.776 16.2557 163.02 16.2557C163.19 16.2557 163.361 16.2415 163.531 16.2131C163.702 16.179 163.832 16.1534 163.923 16.1364L164.494 18.8381C164.313 18.8949 164.057 18.9602 163.727 19.0341C163.398 19.1136 162.997 19.1619 162.526 19.179C161.651 19.2131 160.884 19.0966 160.224 18.8295C159.571 18.5625 159.063 18.1477 158.699 17.5852C158.335 17.0227 158.156 16.3125 158.162 15.4545V2.77273ZM172.395 19.2557C171.071 19.2557 169.926 18.9744 168.96 18.4119C168 17.8437 167.259 17.054 166.736 16.0426C166.213 15.0256 165.952 13.8466 165.952 12.5057C165.952 11.1534 166.213 9.97159 166.736 8.96023C167.259 7.94318 168 7.15341 168.96 6.59091C169.926 6.02273 171.071 5.73864 172.395 5.73864C173.719 5.73864 174.861 6.02273 175.821 6.59091C176.787 7.15341 177.531 7.94318 178.054 8.96023C178.577 9.97159 178.838 11.1534 178.838 12.5057C178.838 13.8466 178.577 15.0256 178.054 16.0426C177.531 17.054 176.787 17.8437 175.821 18.4119C174.861 18.9744 173.719 19.2557 172.395 19.2557ZM172.412 16.4432C173.014 16.4432 173.517 16.2727 173.92 15.9318C174.324 15.5852 174.628 15.1136 174.832 14.517C175.043 13.9205 175.148 13.2415 175.148 12.4801C175.148 11.7188 175.043 11.0398 174.832 10.4432C174.628 9.84659 174.324 9.375 173.92 9.02841C173.517 8.68182 173.014 8.50852 172.412 8.50852C171.804 8.50852 171.293 8.68182 170.878 9.02841C170.469 9.375 170.159 9.84659 169.949 10.4432C169.744 11.0398 169.642 11.7188 169.642 12.4801C169.642 13.2415 169.744 13.9205 169.949 14.517C170.159 15.1136 170.469 15.5852 170.878 15.9318C171.293 16.2727 171.804 16.4432 172.412 16.4432ZM189.594 13.4261V5.90909H193.224V19H189.739V16.6222H189.602C189.307 17.3892 188.815 18.0057 188.128 18.4716C187.446 18.9375 186.614 19.1705 185.631 19.1705C184.756 19.1705 183.986 18.9716 183.321 18.5739C182.656 18.1761 182.136 17.6108 181.761 16.8778C181.392 16.1449 181.205 15.267 181.199 14.2443V5.90909H184.83V13.5966C184.835 14.3693 185.043 14.9801 185.452 15.429C185.861 15.8778 186.409 16.1023 187.097 16.1023C187.534 16.1023 187.943 16.0028 188.324 15.804C188.705 15.5994 189.011 15.2983 189.244 14.9006C189.483 14.5028 189.599 14.0114 189.594 13.4261ZM203.092 5.90909V8.63636H195.208V5.90909H203.092ZM196.998 2.77273H200.629V14.9773C200.629 15.3125 200.68 15.5739 200.782 15.7614C200.884 15.9432 201.026 16.071 201.208 16.1449C201.396 16.2187 201.612 16.2557 201.856 16.2557C202.026 16.2557 202.197 16.2415 202.367 16.2131C202.538 16.179 202.668 16.1534 202.759 16.1364L203.33 18.8381C203.148 18.8949 202.893 18.9602 202.563 19.0341C202.234 19.1136 201.833 19.1619 201.362 19.179C200.487 19.2131 199.719 19.0966 199.06 18.8295C198.407 18.5625 197.898 18.1477 197.535 17.5852C197.171 17.0227 196.992 16.3125 196.998 15.4545V2.77273ZM211.282 19.2557C209.935 19.2557 208.776 18.983 207.805 18.4375C206.839 17.8864 206.094 17.108 205.572 16.1023C205.049 15.0909 204.788 13.8949 204.788 12.5142C204.788 11.1676 205.049 9.9858 205.572 8.96875C206.094 7.9517 206.83 7.15909 207.779 6.59091C208.734 6.02273 209.853 5.73864 211.137 5.73864C212.001 5.73864 212.805 5.87784 213.549 6.15625C214.299 6.42898 214.952 6.84091 215.509 7.39205C216.072 7.94318 216.509 8.63636 216.822 9.47159C217.134 10.3011 217.29 11.2727 217.29 12.3864V13.3835H206.237V11.1335H213.873C213.873 10.6108 213.759 10.1477 213.532 9.74432C213.305 9.34091 212.989 9.02557 212.586 8.7983C212.188 8.56534 211.725 8.44886 211.197 8.44886C210.646 8.44886 210.157 8.5767 209.731 8.83239C209.31 9.08239 208.981 9.42045 208.742 9.84659C208.504 10.267 208.381 10.7358 208.376 11.2528V13.392C208.376 14.0398 208.495 14.5994 208.734 15.071C208.978 15.5426 209.322 15.9062 209.765 16.1619C210.208 16.4176 210.734 16.5455 211.342 16.5455C211.745 16.5455 212.114 16.4886 212.45 16.375C212.785 16.2614 213.072 16.0909 213.31 15.8636C213.549 15.6364 213.731 15.358 213.856 15.0284L217.214 15.25C217.043 16.0568 216.694 16.7614 216.165 17.3636C215.643 17.9602 214.967 18.4261 214.137 18.7614C213.313 19.0909 212.362 19.2557 211.282 19.2557ZM230.552 9.64205L227.228 9.84659C227.171 9.5625 227.049 9.30682 226.862 9.07955C226.674 8.84659 226.427 8.66193 226.12 8.52557C225.819 8.38352 225.458 8.3125 225.038 8.3125C224.475 8.3125 224.001 8.43182 223.614 8.67045C223.228 8.90341 223.035 9.21591 223.035 9.60795C223.035 9.92045 223.16 10.1847 223.41 10.4006C223.66 10.6165 224.089 10.7898 224.697 10.9205L227.066 11.3977C228.339 11.6591 229.288 12.0795 229.913 12.6591C230.538 13.2386 230.85 14 230.85 14.9432C230.85 15.8011 230.597 16.554 230.092 17.2017C229.592 17.8494 228.904 18.3551 228.029 18.7188C227.16 19.0767 226.157 19.2557 225.021 19.2557C223.288 19.2557 221.907 18.8949 220.879 18.1733C219.856 17.446 219.256 16.4574 219.08 15.2074L222.651 15.0199C222.759 15.5483 223.021 15.9517 223.435 16.2301C223.85 16.5028 224.381 16.6392 225.029 16.6392C225.665 16.6392 226.177 16.517 226.563 16.2727C226.955 16.0227 227.154 15.7017 227.16 15.3097C227.154 14.9801 227.015 14.7102 226.742 14.5C226.469 14.2841 226.049 14.1193 225.481 14.0057L223.214 13.554C221.935 13.2983 220.984 12.8551 220.359 12.2244C219.739 11.5937 219.43 10.7898 219.43 9.8125C219.43 8.97159 219.657 8.24716 220.112 7.6392C220.572 7.03125 221.217 6.5625 222.046 6.23295C222.881 5.90341 223.859 5.73864 224.978 5.73864C226.631 5.73864 227.933 6.08807 228.881 6.78693C229.836 7.4858 230.393 8.4375 230.552 9.64205ZM250.896 5.90909L246.319 19H242.228L237.651 5.90909H241.487L244.205 15.2756H244.342L247.052 5.90909H250.896ZM258.246 19.2557C256.923 19.2557 255.778 18.9744 254.812 18.4119C253.852 17.8437 253.11 17.054 252.587 16.0426C252.065 15.0256 251.803 13.8466 251.803 12.5057C251.803 11.1534 252.065 9.97159 252.587 8.96023C253.11 7.94318 253.852 7.15341 254.812 6.59091C255.778 6.02273 256.923 5.73864 258.246 5.73864C259.57 5.73864 260.712 6.02273 261.673 6.59091C262.638 7.15341 263.383 7.94318 263.906 8.96023C264.428 9.97159 264.69 11.1534 264.69 12.5057C264.69 13.8466 264.428 15.0256 263.906 16.0426C263.383 17.054 262.638 17.8437 261.673 18.4119C260.712 18.9744 259.57 19.2557 258.246 19.2557ZM258.263 16.4432C258.866 16.4432 259.369 16.2727 259.772 15.9318C260.175 15.5852 260.479 15.1136 260.684 14.517C260.894 13.9205 260.999 13.2415 260.999 12.4801C260.999 11.7188 260.894 11.0398 260.684 10.4432C260.479 9.84659 260.175 9.375 259.772 9.02841C259.369 8.68182 258.866 8.50852 258.263 8.50852C257.656 8.50852 257.144 8.68182 256.729 9.02841C256.32 9.375 256.011 9.84659 255.8 10.4432C255.596 11.0398 255.494 11.7188 255.494 12.4801C255.494 13.2415 255.596 13.9205 255.8 14.517C256.011 15.1136 256.32 15.5852 256.729 15.9318C257.144 16.2727 257.656 16.4432 258.263 16.4432ZM277.942 9.64205L274.619 9.84659C274.562 9.5625 274.44 9.30682 274.252 9.07955C274.065 8.84659 273.817 8.66193 273.511 8.52557C273.21 8.38352 272.849 8.3125 272.428 8.3125C271.866 8.3125 271.391 8.43182 271.005 8.67045C270.619 8.90341 270.425 9.21591 270.425 9.60795C270.425 9.92045 270.55 10.1847 270.8 10.4006C271.05 10.6165 271.479 10.7898 272.087 10.9205L274.457 11.3977C275.729 11.6591 276.678 12.0795 277.303 12.6591C277.928 13.2386 278.241 14 278.241 14.9432C278.241 15.8011 277.988 16.554 277.482 17.2017C276.982 17.8494 276.295 18.3551 275.42 18.7188C274.55 19.0767 273.548 19.2557 272.411 19.2557C270.678 19.2557 269.298 18.8949 268.269 18.1733C267.246 17.446 266.647 16.4574 266.471 15.2074L270.042 15.0199C270.15 15.5483 270.411 15.9517 270.826 16.2301C271.241 16.5028 271.772 16.6392 272.42 16.6392C273.056 16.6392 273.567 16.517 273.954 16.2727C274.346 16.0227 274.545 15.7017 274.55 15.3097C274.545 14.9801 274.406 14.7102 274.133 14.5C273.86 14.2841 273.44 14.1193 272.871 14.0057L270.604 13.554C269.326 13.2983 268.374 12.8551 267.749 12.2244C267.13 11.5937 266.82 10.7898 266.82 9.8125C266.82 8.97159 267.048 8.24716 267.502 7.6392C267.962 7.03125 268.607 6.5625 269.437 6.23295C270.272 5.90341 271.249 5.73864 272.369 5.73864C274.022 5.73864 275.323 6.08807 276.272 6.78693C277.227 7.4858 277.783 8.4375 277.942 9.64205ZM293.045 5.90909V8.63636H285.161V5.90909H293.045ZM286.951 2.77273H290.582V14.9773C290.582 15.3125 290.633 15.5739 290.735 15.7614C290.837 15.9432 290.979 16.071 291.161 16.1449C291.349 16.2187 291.565 16.2557 291.809 16.2557C291.979 16.2557 292.15 16.2415 292.32 16.2131C292.491 16.179 292.621 16.1534 292.712 16.1364L293.283 18.8381C293.102 18.8949 292.846 18.9602 292.516 19.0341C292.187 19.1136 291.786 19.1619 291.315 19.179C290.44 19.2131 289.673 19.0966 289.013 18.8295C288.36 18.5625 287.852 18.1477 287.488 17.5852C287.124 17.0227 286.945 16.3125 286.951 15.4545V2.77273ZM299.143 19.2472C298.308 19.2472 297.563 19.1023 296.91 18.8125C296.256 18.517 295.739 18.0824 295.359 17.5085C294.984 16.929 294.796 16.2074 294.796 15.3438C294.796 14.6165 294.93 14.0057 295.197 13.5114C295.464 13.017 295.827 12.6193 296.288 12.3182C296.748 12.017 297.271 11.7898 297.856 11.6364C298.447 11.483 299.066 11.375 299.714 11.3125C300.475 11.233 301.089 11.1591 301.555 11.0909C302.021 11.017 302.359 10.9091 302.569 10.767C302.779 10.625 302.884 10.4148 302.884 10.1364V10.0852C302.884 9.54545 302.714 9.12784 302.373 8.83239C302.038 8.53693 301.56 8.3892 300.941 8.3892C300.288 8.3892 299.768 8.53409 299.381 8.82386C298.995 9.10795 298.739 9.46591 298.614 9.89773L295.256 9.625C295.427 8.82955 295.762 8.14205 296.262 7.5625C296.762 6.97727 297.407 6.52841 298.197 6.21591C298.992 5.89773 299.913 5.73864 300.958 5.73864C301.685 5.73864 302.381 5.82386 303.046 5.99432C303.717 6.16477 304.31 6.42898 304.827 6.78693C305.35 7.14489 305.762 7.60511 306.063 8.16761C306.364 8.72443 306.515 9.39205 306.515 10.1705V19H303.072V17.1847H302.969C302.759 17.5938 302.478 17.9545 302.126 18.267C301.773 18.5739 301.35 18.8153 300.856 18.9915C300.362 19.1619 299.79 19.2472 299.143 19.2472ZM300.183 16.7415C300.717 16.7415 301.188 16.6364 301.597 16.4261C302.006 16.2102 302.327 15.9205 302.56 15.5568C302.793 15.1932 302.91 14.7812 302.91 14.321V12.9318C302.796 13.0057 302.64 13.0739 302.441 13.1364C302.248 13.1932 302.029 13.2472 301.785 13.2983C301.54 13.3437 301.296 13.3864 301.052 13.4261C300.808 13.4602 300.586 13.4915 300.387 13.5199C299.961 13.5824 299.589 13.6818 299.271 13.8182C298.952 13.9545 298.705 14.1392 298.529 14.3722C298.353 14.5994 298.265 14.8835 298.265 15.2244C298.265 15.7188 298.444 16.0966 298.802 16.358C299.165 16.6136 299.626 16.7415 300.183 16.7415ZM302.808 4.34091L301.094 2.26136L299.381 4.34091H296.288V4.22159L299.739 0.471591H302.441L305.901 4.22159V4.34091H302.808ZM315.246 19.2557C313.906 19.2557 312.752 18.9716 311.786 18.4034C310.826 17.8295 310.087 17.0341 309.57 16.017C309.059 15 308.803 13.8295 308.803 12.5057C308.803 11.1648 309.062 9.98864 309.579 8.97727C310.102 7.96023 310.843 7.16761 311.803 6.59943C312.763 6.02557 313.906 5.73864 315.229 5.73864C316.371 5.73864 317.371 5.94602 318.229 6.36079C319.087 6.77557 319.766 7.35795 320.266 8.10795C320.766 8.85795 321.042 9.73864 321.093 10.75H317.667C317.57 10.0966 317.315 9.57102 316.9 9.1733C316.491 8.76989 315.954 8.56818 315.289 8.56818C314.727 8.56818 314.235 8.72159 313.815 9.02841C313.4 9.32955 313.076 9.76989 312.843 10.3494C312.61 10.929 312.494 11.6307 312.494 12.4545C312.494 13.2898 312.607 14 312.835 14.5852C313.067 15.1705 313.394 15.6165 313.815 15.9233C314.235 16.2301 314.727 16.3835 315.289 16.3835C315.704 16.3835 316.076 16.2983 316.406 16.1278C316.741 15.9574 317.016 15.7102 317.232 15.3864C317.454 15.0568 317.599 14.6619 317.667 14.2017H321.093C321.036 15.2017 320.763 16.0824 320.275 16.8438C319.792 17.5994 319.124 18.1903 318.272 18.6165C317.42 19.0426 316.411 19.2557 315.246 19.2557ZM327.048 11.4318V19H323.418V1.54545H326.946V8.21875H327.099C327.395 7.44602 327.872 6.84091 328.531 6.40341C329.19 5.96023 330.017 5.73864 331.011 5.73864C331.92 5.73864 332.713 5.9375 333.389 6.33523C334.071 6.72727 334.599 7.29261 334.974 8.03125C335.355 8.7642 335.543 9.64205 335.537 10.6648V19H331.906V11.3125C331.912 10.5057 331.707 9.87784 331.293 9.42898C330.884 8.98011 330.31 8.75568 329.571 8.75568C329.077 8.75568 328.639 8.8608 328.259 9.07102C327.884 9.28125 327.588 9.58807 327.372 9.99148C327.162 10.3892 327.054 10.8693 327.048 11.4318ZM344.36 19.2557C343.013 19.2557 341.854 18.983 340.883 18.4375C339.917 17.8864 339.173 17.108 338.65 16.1023C338.127 15.0909 337.866 13.8949 337.866 12.5142C337.866 11.1676 338.127 9.9858 338.65 8.96875C339.173 7.9517 339.908 7.15909 340.857 6.59091C341.812 6.02273 342.931 5.73864 344.215 5.73864C345.079 5.73864 345.883 5.87784 346.627 6.15625C347.377 6.42898 348.031 6.84091 348.587 7.39205C349.15 7.94318 349.587 8.63636 349.9 9.47159C350.212 10.3011 350.369 11.2727 350.369 12.3864V13.3835H339.315V11.1335H346.951C346.951 10.6108 346.837 10.1477 346.61 9.74432C346.383 9.34091 346.067 9.02557 345.664 8.7983C345.266 8.56534 344.803 8.44886 344.275 8.44886C343.724 8.44886 343.235 8.5767 342.809 8.83239C342.388 9.08239 342.059 9.42045 341.82 9.84659C341.582 10.267 341.46 10.7358 341.454 11.2528V13.392C341.454 14.0398 341.573 14.5994 341.812 15.071C342.056 15.5426 342.4 15.9062 342.843 16.1619C343.286 16.4176 343.812 16.5455 344.42 16.5455C344.823 16.5455 345.192 16.4886 345.528 16.375C345.863 16.2614 346.15 16.0909 346.388 15.8636C346.627 15.6364 346.809 15.358 346.934 15.0284L350.292 15.25C350.121 16.0568 349.772 16.7614 349.244 17.3636C348.721 17.9602 348.045 18.4261 347.215 18.7614C346.391 19.0909 345.44 19.2557 344.36 19.2557ZM363.63 9.64205L360.306 9.84659C360.249 9.5625 360.127 9.30682 359.94 9.07955C359.752 8.84659 359.505 8.66193 359.198 8.52557C358.897 8.38352 358.536 8.3125 358.116 8.3125C357.553 8.3125 357.079 8.43182 356.692 8.67045C356.306 8.90341 356.113 9.21591 356.113 9.60795C356.113 9.92045 356.238 10.1847 356.488 10.4006C356.738 10.6165 357.167 10.7898 357.775 10.9205L360.144 11.3977C361.417 11.6591 362.366 12.0795 362.991 12.6591C363.616 13.2386 363.928 14 363.928 14.9432C363.928 15.8011 363.675 16.554 363.17 17.2017C362.67 17.8494 361.982 18.3551 361.107 18.7188C360.238 19.0767 359.235 19.2557 358.099 19.2557C356.366 19.2557 354.985 18.8949 353.957 18.1733C352.934 17.446 352.335 16.4574 352.158 15.2074L355.729 15.0199C355.837 15.5483 356.099 15.9517 356.513 16.2301C356.928 16.5028 357.46 16.6392 358.107 16.6392C358.744 16.6392 359.255 16.517 359.641 16.2727C360.033 16.0227 360.232 15.7017 360.238 15.3097C360.232 14.9801 360.093 14.7102 359.82 14.5C359.548 14.2841 359.127 14.1193 358.559 14.0057L356.292 13.554C355.013 13.2983 354.062 12.8551 353.437 12.2244C352.817 11.5937 352.508 10.7898 352.508 9.8125C352.508 8.97159 352.735 8.24716 353.19 7.6392C353.65 7.03125 354.295 6.5625 355.124 6.23295C355.96 5.90341 356.937 5.73864 358.056 5.73864C359.71 5.73864 361.011 6.08807 361.96 6.78693C362.914 7.4858 363.471 8.4375 363.63 9.64205ZM375.4 11.4318V19H371.769V5.90909H375.229V8.21875H375.383C375.673 7.45739 376.158 6.85511 376.84 6.41193C377.522 5.96307 378.349 5.73864 379.32 5.73864C380.229 5.73864 381.022 5.9375 381.698 6.33523C382.374 6.73295 382.9 7.30114 383.275 8.03977C383.65 8.77273 383.837 9.64773 383.837 10.6648V19H380.207V11.3125C380.212 10.5114 380.008 9.88636 379.593 9.4375C379.178 8.98295 378.607 8.75568 377.88 8.75568C377.391 8.75568 376.96 8.8608 376.585 9.07102C376.215 9.28125 375.925 9.58807 375.715 9.99148C375.511 10.3892 375.406 10.8693 375.4 11.4318ZM395.094 13.4261V5.90909H398.724V19H395.239V16.6222H395.102C394.807 17.3892 394.315 18.0057 393.628 18.4716C392.946 18.9375 392.114 19.1705 391.131 19.1705C390.256 19.1705 389.486 18.9716 388.821 18.5739C388.156 18.1761 387.636 17.6108 387.261 16.8778C386.892 16.1449 386.705 15.267 386.699 14.2443V5.90909H390.33V13.5966C390.335 14.3693 390.543 14.9801 390.952 15.429C391.361 15.8778 391.909 16.1023 392.597 16.1023C393.034 16.1023 393.443 16.0028 393.824 15.804C394.205 15.5994 394.511 15.2983 394.744 14.9006C394.983 14.5028 395.099 14.0114 395.094 13.4261ZM401.629 19V5.90909H405.089V8.21875H405.242C405.515 7.4517 405.969 6.84659 406.606 6.40341C407.242 5.96023 408.004 5.73864 408.89 5.73864C409.788 5.73864 410.552 5.96307 411.183 6.41193C411.813 6.85511 412.234 7.45739 412.444 8.21875H412.58C412.847 7.46875 413.33 6.86932 414.029 6.42045C414.734 5.96591 415.566 5.73864 416.526 5.73864C417.748 5.73864 418.739 6.12784 419.501 6.90625C420.268 7.67898 420.651 8.77557 420.651 10.196V19H417.029V10.9119C417.029 10.1847 416.836 9.6392 416.45 9.27557C416.063 8.91193 415.58 8.73011 415.001 8.73011C414.342 8.73011 413.827 8.94034 413.458 9.3608C413.089 9.77557 412.904 10.3239 412.904 11.0057V19H409.384V10.8352C409.384 10.1932 409.2 9.68182 408.83 9.30114C408.467 8.92045 407.987 8.73011 407.39 8.73011C406.987 8.73011 406.623 8.83239 406.299 9.03693C405.981 9.2358 405.728 9.51705 405.54 9.88068C405.353 10.2386 405.259 10.6591 405.259 11.142V19H401.629ZM429.485 19.2557C428.138 19.2557 426.979 18.983 426.008 18.4375C425.042 17.8864 424.298 17.108 423.775 16.1023C423.252 15.0909 422.991 13.8949 422.991 12.5142C422.991 11.1676 423.252 9.9858 423.775 8.96875C424.298 7.9517 425.033 7.15909 425.982 6.59091C426.937 6.02273 428.056 5.73864 429.34 5.73864C430.204 5.73864 431.008 5.87784 431.752 6.15625C432.502 6.42898 433.156 6.84091 433.712 7.39205C434.275 7.94318 434.712 8.63636 435.025 9.47159C435.337 10.3011 435.494 11.2727 435.494 12.3864V13.3835H424.44V11.1335H432.076C432.076 10.6108 431.962 10.1477 431.735 9.74432C431.508 9.34091 431.192 9.02557 430.789 8.7983C430.391 8.56534 429.928 8.44886 429.4 8.44886C428.849 8.44886 428.36 8.5767 427.934 8.83239C427.513 9.08239 427.184 9.42045 426.945 9.84659C426.707 10.267 426.585 10.7358 426.579 11.2528V13.392C426.579 14.0398 426.698 14.5994 426.937 15.071C427.181 15.5426 427.525 15.9062 427.968 16.1619C428.411 16.4176 428.937 16.5455 429.545 16.5455C429.948 16.5455 430.317 16.4886 430.653 16.375C430.988 16.2614 431.275 16.0909 431.513 15.8636C431.752 15.6364 431.934 15.358 432.059 15.0284L435.417 15.25C435.246 16.0568 434.897 16.7614 434.369 17.3636C433.846 17.9602 433.17 18.4261 432.34 18.7614C431.516 19.0909 430.565 19.2557 429.485 19.2557ZM427.951 4.22159L429.758 0.34375H433.116L430.516 4.22159H427.951ZM437.863 19V5.90909H441.383V8.19318H441.519C441.758 7.38068 442.158 6.76705 442.721 6.35227C443.283 5.93182 443.931 5.72159 444.664 5.72159C444.846 5.72159 445.042 5.73295 445.252 5.75568C445.462 5.77841 445.647 5.80966 445.806 5.84943V9.07102C445.636 9.01989 445.4 8.97443 445.099 8.93466C444.798 8.89489 444.522 8.875 444.272 8.875C443.738 8.875 443.261 8.99148 442.84 9.22443C442.425 9.4517 442.096 9.76989 441.852 10.179C441.613 10.5881 441.494 11.0597 441.494 11.5938V19H437.863ZM447.683 19V5.90909H451.314V19H447.683ZM449.507 4.22159C448.967 4.22159 448.504 4.04261 448.118 3.68466C447.737 3.32102 447.547 2.88636 447.547 2.38068C447.547 1.88068 447.737 1.4517 448.118 1.09375C448.504 0.730113 448.967 0.548295 449.507 0.548295C450.047 0.548295 450.507 0.730113 450.888 1.09375C451.274 1.4517 451.467 1.88068 451.467 2.38068C451.467 2.88636 451.274 3.32102 450.888 3.68466C450.507 4.04261 450.047 4.22159 449.507 4.22159ZM462.873 23.9091V16.9034H462.762C462.592 17.267 462.35 17.6278 462.038 17.9858C461.731 18.3381 461.33 18.6307 460.836 18.8636C460.347 19.0966 459.751 19.2131 459.046 19.2131C458.052 19.2131 457.151 18.9574 456.344 18.446C455.543 17.929 454.907 17.1705 454.435 16.1705C453.969 15.1648 453.737 13.9318 453.737 12.4716C453.737 10.9716 453.978 9.72443 454.461 8.73011C454.944 7.73011 455.586 6.98295 456.387 6.48864C457.194 5.98864 458.077 5.73864 459.038 5.73864C459.771 5.73864 460.381 5.86364 460.87 6.11364C461.364 6.35795 461.762 6.66477 462.063 7.03409C462.37 7.39773 462.603 7.75568 462.762 8.10795H462.915V5.90909H466.495V23.9091H462.873ZM460.197 16.3239C460.782 16.3239 461.276 16.1648 461.68 15.8466C462.089 15.5227 462.401 15.071 462.617 14.4915C462.839 13.9119 462.95 13.233 462.95 12.4545C462.95 11.6761 462.842 11 462.626 10.4261C462.41 9.85227 462.097 9.40909 461.688 9.09659C461.279 8.78409 460.782 8.62784 460.197 8.62784C459.6 8.62784 459.097 8.78977 458.688 9.11364C458.279 9.4375 457.969 9.88636 457.759 10.4602C457.549 11.0341 457.444 11.6989 457.444 12.4545C457.444 13.2159 457.549 13.8892 457.759 14.4744C457.975 15.054 458.285 15.5085 458.688 15.8381C459.097 16.1619 459.6 16.3239 460.197 16.3239ZM477.805 13.4261V5.90909H481.435V19H477.95V16.6222H477.813C477.518 17.3892 477.026 18.0057 476.339 18.4716C475.657 18.9375 474.825 19.1705 473.842 19.1705C472.967 19.1705 472.197 18.9716 471.532 18.5739C470.867 18.1761 470.347 17.6108 469.972 16.8778C469.603 16.1449 469.415 15.267 469.41 14.2443V5.90909H473.04V13.5966C473.046 14.3693 473.254 14.9801 473.663 15.429C474.072 15.8778 474.62 16.1023 475.308 16.1023C475.745 16.1023 476.154 16.0028 476.535 15.804C476.915 15.5994 477.222 15.2983 477.455 14.9006C477.694 14.5028 477.81 14.0114 477.805 13.4261ZM490.305 19.2557C488.959 19.2557 487.8 18.983 486.828 18.4375C485.862 17.8864 485.118 17.108 484.595 16.1023C484.072 15.0909 483.811 13.8949 483.811 12.5142C483.811 11.1676 484.072 9.9858 484.595 8.96875C485.118 7.9517 485.854 7.15909 486.803 6.59091C487.757 6.02273 488.876 5.73864 490.161 5.73864C491.024 5.73864 491.828 5.87784 492.572 6.15625C493.322 6.42898 493.976 6.84091 494.533 7.39205C495.095 7.94318 495.533 8.63636 495.845 9.47159C496.158 10.3011 496.314 11.2727 496.314 12.3864V13.3835H485.26V11.1335H492.896C492.896 10.6108 492.783 10.1477 492.555 9.74432C492.328 9.34091 492.013 9.02557 491.609 8.7983C491.212 8.56534 490.749 8.44886 490.22 8.44886C489.669 8.44886 489.18 8.5767 488.754 8.83239C488.334 9.08239 488.004 9.42045 487.766 9.84659C487.527 10.267 487.405 10.7358 487.399 11.2528V13.392C487.399 14.0398 487.518 14.5994 487.757 15.071C488.001 15.5426 488.345 15.9062 488.788 16.1619C489.232 16.4176 489.757 16.5455 490.365 16.5455C490.768 16.5455 491.138 16.4886 491.473 16.375C491.808 16.2614 492.095 16.0909 492.334 15.8636C492.572 15.6364 492.754 15.358 492.879 15.0284L496.237 15.25C496.067 16.0568 495.717 16.7614 495.189 17.3636C494.666 17.9602 493.99 18.4261 493.161 18.7614C492.337 19.0909 491.385 19.2557 490.305 19.2557ZM509.575 9.64205L506.251 9.84659C506.195 9.5625 506.072 9.30682 505.885 9.07955C505.697 8.84659 505.45 8.66193 505.143 8.52557C504.842 8.38352 504.482 8.3125 504.061 8.3125C503.499 8.3125 503.024 8.43182 502.638 8.67045C502.251 8.90341 502.058 9.21591 502.058 9.60795C502.058 9.92045 502.183 10.1847 502.433 10.4006C502.683 10.6165 503.112 10.7898 503.72 10.9205L506.089 11.3977C507.362 11.6591 508.311 12.0795 508.936 12.6591C509.561 13.2386 509.874 14 509.874 14.9432C509.874 15.8011 509.621 16.554 509.115 17.2017C508.615 17.8494 507.928 18.3551 507.053 18.7188C506.183 19.0767 505.18 19.2557 504.044 19.2557C502.311 19.2557 500.93 18.8949 499.902 18.1733C498.879 17.446 498.28 16.4574 498.104 15.2074L501.675 15.0199C501.783 15.5483 502.044 15.9517 502.459 16.2301C502.874 16.5028 503.405 16.6392 504.053 16.6392C504.689 16.6392 505.2 16.517 505.587 16.2727C505.979 16.0227 506.178 15.7017 506.183 15.3097C506.178 14.9801 506.038 14.7102 505.766 14.5C505.493 14.2841 505.072 14.1193 504.504 14.0057L502.237 13.554C500.959 13.2983 500.007 12.8551 499.382 12.2244C498.763 11.5937 498.453 10.7898 498.453 9.8125C498.453 8.97159 498.68 8.24716 499.135 7.6392C499.595 7.03125 500.24 6.5625 501.07 6.23295C501.905 5.90341 502.882 5.73864 504.001 5.73864C505.655 5.73864 506.956 6.08807 507.905 6.78693C508.859 7.4858 509.416 8.4375 509.575 9.64205Z" fill="white"/>
</svg>