<svg width="204" height="26" viewBox="0 0 204 26" fill="none" xmlns="http://www.w3.org/2000/svg">
    <path d="M12.7373 0.419006L19.8135 25.5391H13.9953L13.0518 21.9281H6.76177L5.81826 25.5391H0L7.07627 0.419006H12.7373ZM8.33427 16.1191H11.322L9.74952 10.7811L8.33427 16.1191ZM33.8088 20.5151V3.55902H38.8408V21.6141C38.8408 23.8121 37.1111 25.5391 34.9096 25.5391H27.2043C25.0028 25.5391 23.2731 23.8121 23.2731 21.6141V3.55902H28.3051V20.5151H33.8088ZM43.2438 3.55902H58.8116V8.58305H53.4651V25.5391H48.4331V8.58305H43.0866L43.2438 3.55902ZM75.1657 3.55902C77.3672 3.55902 79.0969 5.28603 79.0969 7.48405V21.6141C79.0969 23.8121 77.3672 25.5391 75.1657 25.5391H67.3032C65.1016 25.5391 63.3719 23.8121 63.3719 21.6141V7.48405C63.3719 5.28603 65.1016 3.55902 67.3032 3.55902H75.1657ZM73.9077 20.5151V8.58305H68.4039V20.5151H73.9077ZM98.4387 0.419006H104.257V25.5391H98.4387V14.2351L94.822 23.0271H92.935L89.3182 14.2351V25.5391H83.4999V0.419006H89.3182L93.8785 11.4091L98.4387 0.419006ZM119.039 3.55902L125.171 25.5391H120.139L119.196 22.3991H113.692L112.749 25.5391H107.716L113.849 3.55902H119.039ZM115.265 17.2181H117.938L116.68 12.5081L115.265 17.2181ZM125.958 3.55902H141.525V8.58305H136.179V25.5391H131.147V8.58305H125.8V3.55902H125.958ZM159.924 8.58305H151.118V12.0371H157.408V17.0611H151.118V20.5151H159.924V25.5391H146.086V3.55902H159.924V8.58305ZM180.209 0.419006H186.027V25.5391H180.209V14.2351L176.592 23.0271H174.705L171.088 14.2351V25.5391H165.27V0.419006H171.088L175.649 11.4091L180.209 0.419006ZM204.425 8.58305H195.619V12.0371H201.909V17.0611H195.619V20.5151H204.425V25.5391H190.587V3.55902H204.425V8.58305Z" fill="white"/>
</svg>