<svg width="78" height="83" viewBox="0 0 78 83" fill="none" xmlns="http://www.w3.org/2000/svg">
<path d="M7.68906 24.952L31.8244 11.0349C32.4953 11.3082 33.2192 11.458 33.9784 11.458C37.1388 11.458 39.7165 8.88436 39.7165 5.729C39.7165 2.57364 37.1388 0 33.9784 0C30.818 0 28.2579 2.55602 28.2403 5.70256L3.31044 20.0779C1.27121 21.259 0 23.4536 0 25.8158V56.4174C0 58.7707 1.27121 60.9742 3.31927 62.1553L31.3918 78.3375C31.7803 78.5578 32.2217 78.6812 32.663 78.6812C33.1044 78.6812 33.5458 78.5666 33.9343 78.3375C34.7288 77.8792 35.2055 77.0507 35.2055 76.134V75.3143C35.2055 73.9746 34.4816 72.7319 33.3251 72.062L7.68906 57.2812C6.90338 56.8229 6.40902 55.9767 6.40902 55.0689V27.1643C6.40902 26.2564 6.90338 25.4015 7.68906 24.952ZM30.5355 4.3893C31.074 3.00552 32.4159 2.036 33.9872 2.036C34.1814 2.036 34.3668 2.05363 34.5522 2.08007C34.7817 2.11532 35.0024 2.16821 35.2055 2.24753C36.6532 2.74992 37.6861 4.12488 37.6861 5.73781C37.6861 7.5094 36.4325 8.99894 34.7641 9.35149C34.5169 9.40437 34.2521 9.43082 33.9872 9.43082C31.9392 9.43082 30.2795 7.77381 30.2795 5.729C30.2795 5.25305 30.3766 4.80355 30.5355 4.3893Z" fill="white"/>
<path d="M74.5158 21.8319L46.4256 5.64086C46.0284 5.4117 45.587 5.29712 45.1367 5.29712C44.6865 5.29712 44.2451 5.42051 43.8479 5.64086C43.0445 6.10799 42.559 6.93649 42.559 7.87076V9.00775C42.559 10.1183 43.1593 11.1495 44.1215 11.7048L70.1372 26.6971C70.8964 27.129 71.3643 27.9399 71.3643 28.8125V56.8405C71.3643 57.7131 70.8964 58.5239 70.1372 58.9558L46.6198 72.1766C45.8341 71.7711 44.9425 71.542 44.0068 71.542C40.8464 71.542 38.2687 74.1156 38.2687 77.271C38.2687 80.4263 40.8464 83 44.0068 83C46.8758 83 49.2593 80.8935 49.6831 78.1436L74.5247 63.8211C76.5374 62.6576 77.7821 60.507 77.7821 58.189V27.4639C77.7733 25.1459 76.5286 22.9865 74.5158 21.8319ZM46.5669 79.9416C46.1343 80.3558 45.6134 80.6643 45.022 80.8318C44.6954 80.9287 44.3511 80.9728 43.998 80.9728C43.9626 80.9728 43.9185 80.9728 43.8832 80.9728C41.8881 80.9111 40.2903 79.2805 40.2903 77.2798C40.2903 75.235 41.9499 73.578 43.998 73.578C44.1922 73.578 44.3864 73.5956 44.5718 73.622C46.3462 73.8953 47.7057 75.4289 47.7057 77.2798C47.7057 78.3286 47.2731 79.2717 46.5669 79.9416Z" fill="white"/>
<path d="M55.6066 45.9995L12.1294 57.5104C11.3702 57.7131 10.6463 56.294 11.0701 55.4303L12.0676 53.3767C12.8621 51.7373 14.0715 50.6444 15.5017 50.2654L58.661 38.8426C59.4202 38.6399 60.1441 40.0589 59.7204 40.9227L58.5551 43.3377C57.8665 44.7391 56.8337 45.6822 55.6066 45.9995Z" fill="white"/>
<path d="M55.9245 56.4263L29.0083 63.5478C28.5405 63.6712 27.9402 62.2258 28.1256 61.4149L28.5758 59.5111C28.9289 57.9863 29.6086 57.0344 30.5003 56.8052L57.2222 49.7365C57.69 49.6132 58.2903 51.0586 58.1049 51.8695L57.5841 54.1082C57.2663 55.4127 56.6837 56.2235 55.9245 56.4263Z" fill="white"/>
<path d="M48.9593 29.0328L22.0431 36.1544C21.5753 36.2778 20.975 34.8323 21.1604 34.0215L21.6106 32.1177C21.9637 30.5929 22.6434 29.641 23.535 29.4118L50.2569 22.3431C50.7248 22.2197 51.3251 23.6652 51.1397 24.4761L50.6189 26.7148C50.2923 28.0192 49.7184 28.8301 48.9593 29.0328Z" fill="white"/>
<path d="M63.4281 34.2859L19.9597 45.7879C19.2005 45.9907 18.4767 44.5716 18.9004 43.7079L19.8979 41.6543C20.6924 40.0149 21.9019 38.922 23.332 38.543L66.4913 27.1202C67.2505 26.9175 67.9744 28.3365 67.5507 29.2003L66.3854 31.6153C65.6968 33.0255 64.664 33.9598 63.4281 34.2859Z" fill="white"/>
</svg>
